PathFileType	4	(X/Y/Z)	Patient4_TMGait_0pt4_03_left_21.trc.trc
DataRate	CameraRate	NumFrames	NumMarkers	Units	OrigDataRate	OrigDataStartFrame	OrigNumFrames
75.268817204301	75.268817204301	4	33	mm	75.268817204301	124	       141
Frame#	Time	Sacral			L.Shoulder			Chest			R.Shoulder			Neck			R.ASIS			L.ASIS			R.Thigh.Superior			R.Thigh.Lateral			R.Thigh.Inferior			R.Patella			L.Thigh.Superior			L.Thigh.Lateral			L.Thigh.Inferior			L.Patella			L.Shank.Superior			L.Shank.Lateral			L.Shank.Inferior			R.Shank.Superior			R.Shank.Lateral			R.Shank.Inferior			R.Heel			R.Midfoot.Superior			R.Midfoot.Lateral			R.Toe			L.Heel			L.Midfoot.Lateral			L.Midfoot.Superior			L.Toe			L.Elbow			L.Wrist			R.Elbow			R.Wrist			
		X1	Y1	Z1	X2	Y2	Z2	X3	Y3	Z3	X4	Y4	Z4	X5	Y5	Z5	X6	Y6	Z6	X7	Y7	Z7	X8	Y8	Z8	X9	Y9	Z9	X10	Y10	Z10	X11	Y11	Z11	X12	Y12	Z12	X13	Y13	Z13	X14	Y14	Z14	X15	Y15	Z15	X16	Y16	Z16	X17	Y17	Z17	X18	Y18	Z18	X19	Y19	Z19	X20	Y20	Z20	X21	Y21	Z21	X22	Y22	Z22	X23	Y23	Z23	X24	Y24	Z24	X25	Y25	Z25	X26	Y26	Z26	X27	Y27	Z27	X28	Y28	Z28	X29	Y29	Z29	X30	Y30	Z30	X31	Y31	Z31	X32	Y32	Z32	X33	Y33	Z33	

124	29.054142857143	893.447387511153	1011.308105630520	534.055524631673	1070.619151047725	1423.211319375387	319.036194219001	1193.632046147853	1351.877404484614	464.079795114296	1144.354758900211	1433.768195701692	647.376185420990	1080.077808439159	1488.600784182461	480.524875813587	1130.087548845496	933.179013254632	620.713761103803	1082.600333910550	954.759402271875	350.267033986136	1133.237514893452	724.656197516766	594.592085597791	1038.858596339132	628.397549067507	663.341853655118	1099.066024070492	564.464963868216	580.576023206229	1084.181605666404	479.511630339471	589.094613620575	1148.801477068186	760.148869768161	372.973428419988	1081.007442790017	637.846100500867	302.568034163393	1183.803384502116	572.944617778738	357.116666482657	1203.363478404966	507.175650688973	353.728577247248	1181.870688087583	436.544108115526	342.883414144860	1103.947503726946	311.845584173657	296.564634693120	1187.298423724822	206.586801115374	344.947754423824	1045.837995442181	395.172080409968	598.673479793802	963.159657921010	301.630083756359	663.140907925314	991.953618488241	201.473095855051	600.592230885287	844.882266333026	43.713405272941	569.137249672078	1013.521421095819	95.748468248577	612.184212683473	924.511728780031	36.722837829935	647.725861337852	1132.971979505658	42.557280991368	647.114900755453	1092.610545627067	38.938616743801	388.748242175892	1160.310655765210	38.320959665287	303.305912797756	1241.048456079783	105.142090622659	322.125877243852	1368.393294537686	61.471313661440	284.154999904703	968.834645916898	1083.470325880574	211.540578516090	1009.064277891400	825.600783817508	178.059082208473	1165.946857874064	1093.267124318410	784.242105869438	1367.125369290325	948.733486873372	716.575923721098	
125	29.067428571429	894.352209399751	1010.724777227746	531.227038536404	1070.374273554903	1422.230804685299	314.849901338215	1193.383656472023	1351.968043241275	460.379662705109	1143.318965278276	1434.046771809801	643.371991218910	1079.394648021103	1488.191374956956	476.266109269769	1131.048369599059	933.204887375443	618.490642204286	1083.950473076885	953.805904085420	348.188096531808	1132.913663404298	723.944607691907	593.277656821255	1037.128714358567	628.402254177200	661.879095594730	1096.771755009720	563.759951591023	579.508331654877	1081.156175362765	478.974641519779	587.972045414931	1149.679430589997	758.382429424877	371.393184112319	1080.528490215493	636.411108632976	301.884570238462	1183.216730741918	571.560093442077	356.622660977530	1201.449359131765	505.024304441814	353.829469022533	1179.712135584738	434.137270144870	342.855478791968	1100.438247568618	310.131208304573	296.877161239304	1182.315313621839	204.110044653170	345.822998248330	1042.263111900746	394.938287125633	597.727098508745	959.044047915329	302.081641525950	662.578486970868	987.295736955804	201.546472433199	600.283369778143	839.547598804799	43.957062254329	569.262489375369	1008.295350496350	95.782490747548	612.209748225777	919.217297454655	36.751803561492	647.736891922943	1127.680106505308	42.406319175644	647.198881079269	1084.996370983667	38.571247869598	390.081746424254	1152.616889377938	37.071119024925	304.464635259750	1234.744211185368	102.084204704812	323.721351113382	1361.523797703488	55.886441372842	285.452563716280	969.460735706142	1082.011324366238	208.350671557689	1011.478709221047	824.282030246958	175.392045065705	1164.230143544309	1093.510525015769	780.392617636397	1365.115479483254	949.253300246697	711.257978531934	
126	29.080714285714	895.230861582265	1010.344994905303	528.393618227052	1070.150204080856	1421.355367871252	310.575928888370	1193.196548047663	1352.146900438944	456.541829237355	1142.480008617425	1434.498053722536	639.224437954127	1078.796138758066	1487.911959421930	471.882831377249	1131.968898162319	933.327946181449	616.095961175273	1085.156509595431	953.138890644685	345.956259372734	1132.735540087143	723.358607892992	591.742371475487	1035.725934378402	628.450074981736	660.235813578331	1094.863030557646	563.171174132897	578.213639178732	1078.640115130757	478.390087387086	586.697098468270	1150.706532171747	757.282208712881	369.806005247022	1080.647154511305	635.593708196476	300.888990584034	1183.163289553969	570.785196713129	355.868701003465	1200.046769829060	503.430509208269	353.621585688546	1178.143244302511	432.247575453696	342.505361497174	1097.693883224177	308.963479163740	296.537401280728	1177.881867194631	202.168120441693	346.282385138498	1039.061679567806	394.724041482765	596.677941684300	955.190533533911	302.666432049656	661.920768128423	982.817479505457	201.700594019012	599.939835533879	834.235467436452	44.392318712779	569.414793835664	1003.159545877633	95.861193766612	612.253419144181	913.964147484981	36.868911832804	647.748893594234	1122.438269549813	42.192585331387	647.288188557358	1078.017154683945	38.371976480694	390.828944880305	1145.635265848250	36.251469103299	305.120291757045	1228.821266799614	99.841562634338	324.863581834201	1355.201454774820	51.662192450678	286.436923884044	970.534837322261	1080.536836317532	204.985917755929	1014.395808439330	822.983738495422	172.561518317839	1162.192318719710	1093.976845129642	776.588370838468	1362.516609855710	949.433753261757	706.296410607817	
127	29.094000000000	896.050828465354	1010.182961972428	525.557993976900	1069.930289695910	1420.612796400206	306.263138782220	1193.065772368676	1352.400318997260	452.589178575410	1141.880156844531	1435.122547088491	634.963013007302	1078.291057213052	1487.773186041811	467.420532628174	1132.801005210700	933.563953922142	613.530203309793	1086.168599389531	952.748194675490	343.534032913802	1132.671530630644	722.936783744520	589.951291498191	1034.712503979779	628.541708702541	658.422741221253	1093.432657139538	562.715974130507	576.691324908938	1076.763556538087	477.738316414213	585.312843227895	1151.869397973632	756.893795775344	368.160956908185	1081.327741452642	635.354499119344	299.590246702741	1183.605733606562	570.555816622818	354.784903821510	1199.158594957029	502.365149466894	353.056716350009	1177.132460922414	430.853317373581	341.849626645364	1095.669629286932	308.309817233000	295.619591692713	1173.977241765468	200.743594278942	346.378062771621	1036.333335008246	394.523620078141	595.554140047929	951.668636678182	303.398891590145	661.171468842623	978.569630391520	201.949173705266	599.573041284443	828.960123576743	45.091052636006	569.592434033345	998.139949621287	95.997854702421	612.321151452725	908.760442313503	37.116439525768	647.761861200868	1117.253589007165	41.909093327802	647.381580837177	1071.696437712336	38.310627094292	391.097954940340	1139.361258265314	35.800904220007	305.359919554808	1223.285149516299	98.370851506455	325.571897729751	1349.415153846008	48.747813072977	287.090773057021	972.030324649539	1079.088156957878	201.466236174795	1017.806149038519	821.752331684033	169.587639905829	1159.869127408926	1094.678581452968	772.852591208725	1359.339957178341	949.256433341074	701.713455921678	
